<svg width="55" height="22" viewBox="0 0 55 22" fill="none" xmlns="http://www.w3.org/2000/svg">
<g filter="url(#filter0_d_81_47)">
<path d="M24.3813 13.6927H20.6296L22.9762 0.243164H26.7276L24.3813 13.6927Z" fill="white"/>
<path d="M37.9812 0.572599C37.2412 0.300467 36.0675 0 34.6163 0C30.9114 0 28.3025 1.83133 28.2865 4.44957C28.2557 6.38131 30.1544 7.45425 31.5744 8.09835C33.0259 8.75652 33.5193 9.18611 33.5193 9.77279C33.5045 10.6738 32.3464 11.0891 31.2663 11.0891C29.7685 11.0891 28.9659 10.875 27.7463 10.3737L27.2523 10.1588L26.7273 13.178C27.6072 13.5495 29.2283 13.8793 30.9114 13.8937C34.8479 13.8937 37.4106 12.0908 37.441 9.3006C37.456 7.76955 36.4534 6.59639 34.2919 5.63775C32.9797 5.02236 32.1762 4.60742 32.1762 3.97777C32.1916 3.40536 32.8558 2.81907 34.337 2.81907C35.5567 2.79035 36.4528 3.0621 37.1316 3.33404L37.471 3.47686L37.9812 0.572599Z" fill="white"/>
<path d="M42.9675 8.92799C43.2764 8.15534 44.4653 5.16493 44.4653 5.16493C44.4497 5.19364 44.7737 4.37801 44.9589 3.87729L45.2211 5.03618C45.2211 5.03618 45.9315 8.25556 46.0858 8.92799C45.4995 8.92799 43.7085 8.92799 42.9675 8.92799ZM47.5984 0.243164H44.6965C43.8016 0.243164 43.1218 0.4862 42.7357 1.35908L37.1631 13.6925H41.0996C41.0996 13.6925 41.7476 12.0325 41.8869 11.675C42.3188 11.675 46.1482 11.675 46.7037 11.675C46.8114 12.1472 47.1514 13.6925 47.1514 13.6925H50.625L47.5984 0.243164Z" fill="white"/>
<path d="M17.4961 0.243164L13.822 9.41445L13.4205 7.5544C12.7413 5.40815 10.611 3.0763 8.23364 1.91684L11.599 13.6784H15.5662L21.4631 0.243164H17.4961Z" fill="white"/>
<path d="M10.4103 0.243164H4.37425L4.3125 0.514915C9.02097 1.63102 12.1393 4.32134 13.4205 7.55497L12.1083 1.37372C11.8923 0.514725 11.2284 0.271499 10.4103 0.243164Z" fill="#FAA61A"/>
</g>
<defs>
<filter id="filter0_d_81_47" x="0.3125" y="0" width="54.3125" height="21.8936" filterUnits="userSpaceOnUse" color-interpolation-filters="sRGB">
<feFlood flood-opacity="0" result="BackgroundImageFix"/>
<feColorMatrix in="SourceAlpha" type="matrix" values="0 0 0 0 0 0 0 0 0 0 0 0 0 0 0 0 0 0 127 0" result="hardAlpha"/>
<feOffset dy="4"/>
<feGaussianBlur stdDeviation="2"/>
<feComposite in2="hardAlpha" operator="out"/>
<feColorMatrix type="matrix" values="0 0 0 0 0 0 0 0 0 0 0 0 0 0 0 0 0 0 0.25 0"/>
<feBlend mode="normal" in2="BackgroundImageFix" result="effect1_dropShadow_81_47"/>
<feBlend mode="normal" in="SourceGraphic" in2="effect1_dropShadow_81_47" result="shape"/>
</filter>
</defs>
</svg>
