<svg width="47" height="47" viewBox="0 0 47 47" fill="none" xmlns="http://www.w3.org/2000/svg">
<g filter="url(#filter0_d_81_25)">
<rect x="4" width="39" height="39" rx="19.5" fill="#00E676"/>
<path d="M31.6784 11.3568C29.5476 9.18112 26.6022 8 23.594 8C17.2017 8 12.0627 13.1594 12.1253 19.4378C12.1253 21.427 12.6894 23.3541 13.6295 25.0946L12 31L18.079 29.4459C19.7711 30.3784 21.6511 30.8136 23.5314 30.8136C29.861 30.8136 35 25.654 35 19.3758C35 16.3298 33.8092 13.4703 31.6785 11.3568H31.6784ZM23.594 28.8866C21.9019 28.8866 20.2098 28.4515 18.7684 27.5812L18.3924 27.3947L14.7575 28.3271L15.6976 24.7839L15.4469 24.4109C12.6894 19.9974 14.0055 14.154 18.5177 11.4189C23.0299 8.68377 28.8583 9.98921 31.6158 14.4649C34.3733 18.9405 33.0572 24.7216 28.545 27.4568C27.1035 28.3892 25.3488 28.8865 23.594 28.8865V28.8866ZM29.1089 21.9866L28.4196 21.6758C28.4196 21.6758 27.4169 21.2407 26.7902 20.9298C26.7275 20.9298 26.6649 20.8676 26.6022 20.8676C26.4141 20.8676 26.2888 20.9298 26.1635 20.992C26.1635 20.992 26.1008 21.0541 25.2234 22.0488C25.1607 22.1731 25.0354 22.2353 24.9101 22.2353H24.8474C24.7847 22.2353 24.6594 22.1731 24.5967 22.111L24.2833 21.9866C23.594 21.6758 22.9673 21.3028 22.4659 20.8055C22.3406 20.6812 22.1525 20.5569 22.0272 20.4326C21.5885 19.9974 21.1498 19.5001 20.8365 18.9406L20.7738 18.8163C20.7112 18.7541 20.7112 18.692 20.6485 18.5677C20.6485 18.4434 20.6485 18.3191 20.7112 18.2569C20.7112 18.2569 20.9619 17.946 21.1498 17.7596C21.2752 17.6352 21.3379 17.4488 21.4632 17.3245C21.5885 17.1379 21.6512 16.8893 21.5885 16.7028C21.5259 16.392 20.7738 14.7136 20.5859 14.3406C20.4605 14.1541 20.3352 14.092 20.1472 14.0298H19.4578C19.3324 14.0298 19.2072 14.092 19.0817 14.092L19.019 14.1541C18.8937 14.2163 18.7684 14.3406 18.643 14.4028C18.5177 14.5272 18.455 14.6514 18.3297 14.7758C17.891 15.3353 17.6403 16.019 17.6403 16.7028C17.6403 17.2001 17.7656 17.6974 17.9537 18.1325L18.0164 18.3191C18.5804 19.5001 19.3324 20.5569 20.3352 21.4893L20.5859 21.7379C20.7738 21.9244 20.9619 22.0488 21.0872 22.2352C22.4033 23.3542 23.9073 24.1623 25.5994 24.5974C25.7875 24.6595 26.0381 24.6595 26.2262 24.7217H26.8528C27.1662 24.7217 27.5422 24.5974 27.7929 24.4731C27.9809 24.3488 28.1062 24.3488 28.2315 24.2245L28.357 24.1001C28.4823 23.9758 28.6076 23.9136 28.733 23.7893C28.8583 23.665 28.9836 23.5407 29.0463 23.4163C29.1717 23.1677 29.2343 22.8568 29.297 22.5461V22.111C29.297 22.111 29.2343 22.0488 29.1089 21.9866V21.9866Z" fill="white"/>
</g>
<defs>
<filter id="filter0_d_81_25" x="0" y="0" width="47" height="47" filterUnits="userSpaceOnUse" color-interpolation-filters="sRGB">
<feFlood flood-opacity="0" result="BackgroundImageFix"/>
<feColorMatrix in="SourceAlpha" type="matrix" values="0 0 0 0 0 0 0 0 0 0 0 0 0 0 0 0 0 0 127 0" result="hardAlpha"/>
<feOffset dy="4"/>
<feGaussianBlur stdDeviation="2"/>
<feComposite in2="hardAlpha" operator="out"/>
<feColorMatrix type="matrix" values="0 0 0 0 0 0 0 0 0 0 0 0 0 0 0 0 0 0 0.25 0"/>
<feBlend mode="normal" in2="BackgroundImageFix" result="effect1_dropShadow_81_25"/>
<feBlend mode="normal" in="SourceGraphic" in2="effect1_dropShadow_81_25" result="shape"/>
</filter>
</defs>
</svg>
