<svg width="40" height="25" viewBox="0 0 40 25" fill="none" xmlns="http://www.w3.org/2000/svg">
<path d="M25.5658 22.12H14.8633V2.88574H25.5658V22.12Z" fill="#FF5F00"/>
<path d="M15.5488 12.5013C15.5488 8.59954 17.3757 5.12396 20.2205 2.88416C18.1402 1.2463 15.5146 0.268725 12.6612 0.268725C5.90602 0.268725 0.430176 5.74535 0.430176 12.5013C0.430176 19.2573 5.90602 24.7339 12.6612 24.7339C15.5146 24.7339 18.1402 23.7563 20.2205 22.1185C17.3757 19.8787 15.5488 16.4031 15.5488 12.5013Z" fill="#EB001B"/>
<path d="M40.0004 12.5013C40.0004 19.2573 34.5245 24.7339 27.7693 24.7339C24.9159 24.7339 22.2904 23.7563 20.2092 22.1185C23.0549 19.8787 24.8817 16.4031 24.8817 12.5013C24.8817 8.59954 23.0549 5.12396 20.2092 2.88416C22.2904 1.2463 24.9159 0.268725 27.7693 0.268725C34.5245 0.268725 40.0004 5.74535 40.0004 12.5013Z" fill="#F79E1B"/>
<path d="M9.63376 12.5789C9.63376 12.0446 9.9839 11.6056 10.5561 11.6056C11.1028 11.6056 11.4718 12.0257 11.4718 12.5789C11.4718 13.1321 11.1028 13.5522 10.5561 13.5522C9.9839 13.5522 9.63376 13.1132 9.63376 12.5789ZM12.095 12.5789V11.0589H11.434V11.428C11.2243 11.1543 10.9062 10.9825 10.4738 10.9825C9.62138 10.9825 8.95312 11.6508 8.95312 12.5789C8.95312 13.5078 9.62138 14.1753 10.4738 14.1753C10.9062 14.1753 11.2243 14.0035 11.434 13.7298V14.0989H12.095V12.5789ZM34.4314 12.5789C34.4314 12.0446 34.7815 11.6056 35.3537 11.6056C35.9011 11.6056 36.2695 12.0257 36.2695 12.5789C36.2695 13.1321 35.9011 13.5522 35.3537 13.5522C34.7815 13.5522 34.4314 13.1132 34.4314 12.5789ZM36.8933 12.5789V9.83816H36.2316V11.428C36.022 11.1543 35.7039 10.9825 35.2715 10.9825C34.419 10.9825 33.7508 11.6508 33.7508 12.5789C33.7508 13.5078 34.419 14.1753 35.2715 14.1753C35.7039 14.1753 36.022 14.0035 36.2316 13.7298V14.0989H36.8933V12.5789ZM20.2997 11.5743C20.7255 11.5743 20.9993 11.8415 21.0691 12.3117H19.4917C19.5623 11.8728 19.8287 11.5743 20.2997 11.5743ZM20.3128 10.9825C19.4218 10.9825 18.7987 11.6311 18.7987 12.5789C18.7987 13.5456 19.4473 14.1753 20.3572 14.1753C20.8151 14.1753 21.2344 14.061 21.6035 13.7494L21.2795 13.2595C21.0247 13.4626 20.7001 13.5776 20.3951 13.5776C19.9692 13.5776 19.5812 13.3804 19.4858 12.833H21.7432C21.7498 12.7507 21.7563 12.6677 21.7563 12.5789C21.7498 11.6311 21.1645 10.9825 20.3128 10.9825ZM28.294 12.5789C28.294 12.0446 28.6442 11.6056 29.2164 11.6056C29.7631 11.6056 30.1321 12.0257 30.1321 12.5789C30.1321 13.1321 29.7631 13.5522 29.2164 13.5522C28.6442 13.5522 28.294 13.1132 28.294 12.5789ZM30.7552 12.5789V11.0589H30.0943V11.428C29.8839 11.1543 29.5665 10.9825 29.1341 10.9825C28.2817 10.9825 27.6134 11.6508 27.6134 12.5789C27.6134 13.5078 28.2817 14.1753 29.1341 14.1753C29.5665 14.1753 29.8839 14.0035 30.0943 13.7298V14.0989H30.7552V12.5789ZM24.5611 12.5789C24.5611 13.5012 25.2032 14.1753 26.183 14.1753C26.6409 14.1753 26.9459 14.0734 27.2764 13.8128L26.959 13.2785C26.7108 13.4568 26.4501 13.5522 26.1633 13.5522C25.6356 13.5456 25.2476 13.1642 25.2476 12.5789C25.2476 11.9936 25.6356 11.6122 26.1633 11.6056C26.4501 11.6056 26.7108 11.701 26.959 11.8793L27.2764 11.345C26.9459 11.0844 26.6409 10.9825 26.183 10.9825C25.2032 10.9825 24.5611 11.6566 24.5611 12.5789ZM33.0832 10.9825C32.7018 10.9825 32.4536 11.1608 32.2818 11.428V11.0589H31.6266V14.0989H32.2883V12.3947C32.2883 11.8917 32.5045 11.6122 32.9369 11.6122C33.0709 11.6122 33.2106 11.6311 33.3504 11.6886L33.5542 11.0655C33.4079 11.008 33.2172 10.9825 33.0832 10.9825ZM15.3642 11.3006C15.0461 11.091 14.6078 10.9825 14.1245 10.9825C13.3543 10.9825 12.8586 11.3516 12.8586 11.9558C12.8586 12.4515 13.2277 12.7572 13.9076 12.8526L14.2198 12.897C14.5824 12.948 14.7534 13.0433 14.7534 13.2151C14.7534 13.4503 14.5118 13.5842 14.0604 13.5842C13.6025 13.5842 13.2721 13.4379 13.0493 13.2661L12.7377 13.7807C13.1003 14.0479 13.5581 14.1753 14.0539 14.1753C14.9318 14.1753 15.4406 13.7618 15.4406 13.1831C15.4406 12.6488 15.0402 12.3692 14.3785 12.2739L14.067 12.2288C13.7809 12.1909 13.5516 12.1341 13.5516 11.9303C13.5516 11.7075 13.7678 11.5743 14.1303 11.5743C14.5183 11.5743 14.8939 11.7206 15.0781 11.8349L15.3642 11.3006ZM23.8929 10.9825C23.5114 10.9825 23.2632 11.1608 23.0921 11.428V11.0589H22.437V14.0989H23.0979V12.3947C23.0979 11.8917 23.3141 11.6122 23.7465 11.6122C23.8805 11.6122 24.0202 11.6311 24.16 11.6886L24.3638 11.0655C24.2175 11.008 24.0268 10.9825 23.8929 10.9825ZM18.252 11.0589H17.171V10.1366H16.5027V11.0589H15.8861V11.6631H16.5027V13.0499C16.5027 13.7553 16.7764 14.1753 17.5582 14.1753C17.845 14.1753 18.1755 14.0865 18.3852 13.9402L18.1945 13.3738C17.9972 13.4881 17.781 13.5456 17.6092 13.5456C17.2787 13.5456 17.171 13.3418 17.171 13.0368V11.6631H18.252V11.0589ZM8.36858 14.0989V12.1909C8.36858 11.4724 7.9107 10.9891 7.17256 10.9825C6.78456 10.9759 6.38419 11.0968 6.10393 11.5234C5.89428 11.1863 5.56379 10.9825 5.09935 10.9825C4.77469 10.9825 4.4573 11.0779 4.20907 11.4338V11.0589H3.54736V14.0989H4.21489V12.4137C4.21489 11.8859 4.50753 11.6056 4.95959 11.6056C5.39854 11.6056 5.62057 11.8917 5.62057 12.4071V14.0989H6.28882V12.4137C6.28882 11.8859 6.59384 11.6056 7.03279 11.6056C7.48412 11.6056 7.70032 11.8917 7.70032 12.4071V14.0989H8.36858Z" fill="white"/>
</svg>
